<?xml version="1.0" encoding="UTF-8" standalone="no"?>
<svg
   xmlns:dc="http://purl.org/dc/elements/1.1/"
   xmlns:cc="http://creativecommons.org/ns#"
   xmlns:rdf="http://www.w3.org/1999/02/22-rdf-syntax-ns#"
   xmlns:svg="http://www.w3.org/2000/svg"
   xmlns="http://www.w3.org/2000/svg"
   viewBox="0 0 180.00001 285.48"
   height="3.1719999in"
   width="2in"
   xml:space="preserve"
   version="1.1"
   id="svg2"><metadata
     id="metadata8"><rdf:RDF><cc:Work
         rdf:about=""><dc:format>image/svg+xml</dc:format><dc:type
           rdf:resource="http://purl.org/dc/dcmitype/StillImage" /><dc:title></dc:title></cc:Work></rdf:RDF></metadata><defs
     id="defs6"><clipPath
       id="clipPath98"
       clipPathUnits="userSpaceOnUse"><path
         id="path100"
         d="m 4628.91,3579.76 c 0,-347.21 -281.48,-628.68 -628.69,-628.68 -347.21,0 -628.68,281.47 -628.68,628.68 0,347.21 281.47,628.68 628.68,628.68 347.21,0 628.69,-281.47 628.69,-628.68" /></clipPath><clipPath
       id="clipPath104"
       clipPathUnits="userSpaceOnUse"><path
         id="path106"
         d="m 4000.22,2951.08 c -108.61,0 -210.77,27.53 -299.91,76.01 l 3.06,46.83 c -157.93,334.85 -161.97,655.64 -161.97,655.64 l 4.69,0.08 -1.72,13.08 6.13,0.34 c -9.67,27.61 -19.41,67.12 2.54,71.03 0.97,0.18 1.9,0.26 2.8,0.26 8.04,0 13.15,-6.62 14.02,-14.14 -0.97,8.36 -0.56,20.39 10.16,21.93 0.79,0.11 1.54,0.17 2.27,0.17 10.28,0 15.36,-10.6 16,-16.68 -0.42,7.98 -5.84,23.68 12.71,26.88 0.39,0.07 0.79,0.1 1.2,0.1 7.42,0 17.56,-10.73 18.73,-18.59 -2.46,34.66 -9.22,114.49 16.01,117.51 0.21,0.03 0.42,0.04 0.62,0.04 20,0 17.1,-119.45 14.18,-182.31 l 4.28,0.23 0.53,-17.68 9.67,0.17 c 0,0 2.15,-230.1 70.36,-455 5.4,110.51 30.55,320.8 140.49,442.07 -198.13,125.18 -94.14,323.29 -94.14,323.29 50.85,-68.58 87.47,-90.3 122.96,-90.3 30.7,0 60.55,16.26 98,32.52 37.45,16.27 82.51,32.53 143.65,32.53 26,0 54.91,-2.94 87.37,-10.08 195.66,-43 187.2,-201.81 187.2,-201.81 1.48,0.02 2.9,0.04 4.35,0.04 302.01,0 13.39,-653.81 7.68,-654.77 l 5.36,-0.65 -1.23,-11.07 c -114.03,-115.83 -272.66,-187.67 -448.05,-187.67 m 434.43,211.07 c -0.66,-3.95 -1.26,-7.41 -1.79,-10.32 l 11.12,-1.34 c -3.14,3.62 -6.25,7.56 -9.33,11.66" /></clipPath><clipPath
       id="clipPath114"
       clipPathUnits="userSpaceOnUse"><path
         id="path116"
         d="m 4628.91,3579.76 c 0,-347.21 -281.48,-628.68 -628.69,-628.68 -347.21,0 -628.68,281.47 -628.68,628.68 0,347.21 281.47,628.68 628.68,628.68 347.21,0 628.69,-281.47 628.69,-628.68" /></clipPath></defs><g
     transform="matrix(1.25,0,0,-1.25,0,285.48003)"
     id="g10"><g
       transform="matrix(0.61403584,0,0,0.61403584,-173.63038,-92.10499)"
       id="g4442"><path
         id="path78"
         style="fill:#f4f5f5;fill-opacity:1;fill-rule:nonzero;stroke:none"
         d="m 373.101,187.901 53.842,0 c 4.65,0 9.081,2.083 11.966,5.73 30.495,38.548 49.266,90.914 49.266,148.651 0,71.935 -29.116,135.558 -73.769,174.474 -8.255,7.194 -20.512,7.194 -28.767,0 C 340.986,477.84 311.87,414.217 311.87,342.282 c 0,-57.737 18.771,-110.103 49.266,-148.651 2.885,-3.647 7.315,-5.73 11.965,-5.73" /><path
         id="path80"
         style="fill:#e56a1a;fill-opacity:1;fill-rule:nonzero;stroke:none"
         d="m 446.388,201.668 c 26.678,0 48.769,-19.59 52.699,-45.169 0.548,-3.569 3.536,-6.248 7.146,-6.248 l 1.074,0 c 3.415,0 6.387,2.388 7.068,5.734 1.88,9.238 2.882,18.793 2.882,28.586 0,36.759 -13.868,70.271 -36.641,95.62 -7.295,-29.34 -19.604,-56.014 -35.735,-78.561 0.502,0.014 1.001,0.038 1.507,0.038" /><path
         id="path82"
         style="fill:#e56a1a;fill-opacity:1;fill-rule:nonzero;stroke:none"
         d="m 353.612,201.668 c -26.678,0 -48.769,-19.59 -52.699,-45.169 -0.548,-3.569 -3.536,-6.248 -7.146,-6.248 l -1.074,0 c -3.415,0 -6.387,2.388 -7.068,5.734 -1.88,9.238 -2.882,18.793 -2.882,28.586 0,36.759 13.868,70.271 36.642,95.62 7.294,-29.34 19.603,-56.014 35.734,-78.561 -0.502,0.014 -1.001,0.038 -1.507,0.038" /><path
         id="path84"
         style="fill:#e56a1a;fill-opacity:1;fill-rule:nonzero;stroke:none"
         d="m 385.745,516.845 c -19.553,-17.021 -36.123,-38.784 -48.591,-63.899 l 125.737,0 c -12.468,25.115 -29.039,46.878 -48.591,63.899 -8.177,7.119 -20.378,7.119 -28.555,0" /><path
         id="path86"
         style="fill:#d3d4d3;fill-opacity:1;fill-rule:nonzero;stroke:none"
         d="m 473.304,355.987 c 0,-40.472 -32.809,-73.282 -73.281,-73.282 -40.473,0 -73.282,32.81 -73.282,73.282 0,40.473 32.809,73.282 73.281,73.282 40.473,0 73.282,-32.809 73.282,-73.282" /><path
         id="path88"
         style="fill:#e9eae9;fill-opacity:1;fill-rule:nonzero;stroke:none"
         d="m 473.304,357.976 c 0,-40.472 -32.809,-73.282 -73.281,-73.282 -40.473,0 -73.282,32.81 -73.282,73.282 0,40.473 32.809,73.282 73.281,73.282 40.473,0 73.282,-32.809 73.282,-73.282" /><path
         id="path90"
         style="fill:#b9b9ba;fill-opacity:1;fill-rule:nonzero;stroke:none"
         d="m 407.688,422.799 c -1.318,0.144 -2.263,1.342 -2.107,2.659 0.155,1.305 1.341,2.251 2.658,2.095 1.316,-0.155 2.251,-1.341 2.095,-2.658 -0.144,-1.222 -1.174,-2.12 -2.371,-2.12 -0.096,0 -0.191,0.013 -0.275,0.024 m -18.406,2.036 c -0.155,1.305 0.767,2.503 2.084,2.671 1.317,0.155 2.503,-0.779 2.67,-2.096 0.168,-1.305 -0.766,-2.503 -2.083,-2.67 -0.096,-0.013 -0.204,-0.013 -0.3,-0.013 -1.185,0 -2.227,0.887 -2.371,2.108 m 33.686,-5.736 c -1.246,0.455 -1.868,1.844 -1.401,3.078 0.466,1.245 1.844,1.868 3.089,1.401 1.234,-0.467 1.856,-1.844 1.39,-3.089 -0.36,-0.959 -1.27,-1.545 -2.24,-1.545 -0.276,0 -0.563,0.048 -0.838,0.155 m -49.361,1.233 c -0.479,1.234 0.143,2.623 1.377,3.09 1.233,0.479 2.623,-0.143 3.09,-1.377 0.479,-1.233 -0.144,-2.623 -1.377,-3.09 -0.276,-0.12 -0.575,-0.167 -0.851,-0.167 -0.97,0 -1.88,0.587 -2.239,1.544 m 63.299,-8.514 c -1.089,0.755 -1.365,2.24 -0.61,3.33 0.742,1.089 2.239,1.377 3.329,0.622 1.09,-0.742 1.365,-2.239 0.622,-3.329 -0.467,-0.682 -1.221,-1.042 -1.975,-1.042 -0.468,0 -0.946,0.144 -1.366,0.419 m -77.43,0.384 c -0.754,1.078 -0.49,2.574 0.599,3.329 1.078,0.754 2.575,0.491 3.33,-0.599 0.754,-1.09 0.49,-2.575 -0.599,-3.341 -0.419,-0.287 -0.898,-0.419 -1.366,-0.419 -0.754,0 -1.508,0.359 -1.964,1.03 m 89.238,-10.778 c -0.874,0.994 -0.791,2.503 0.191,3.389 0.994,0.874 2.503,0.79 3.389,-0.191 0.874,-0.994 0.791,-2.504 -0.191,-3.389 -0.455,-0.407 -1.031,-0.611 -1.593,-0.611 -0.658,0 -1.317,0.275 -1.796,0.802 m -101.032,-0.503 c -0.995,0.874 -1.09,2.395 -0.204,3.377 0.874,0.994 2.383,1.09 3.377,0.215 0.994,-0.874 1.089,-2.382 0.215,-3.376 -0.479,-0.539 -1.137,-0.815 -1.808,-0.815 -0.563,0 -1.126,0.204 -1.58,0.599 m 110.025,-12.394 c -0.623,1.162 -0.179,2.623 0.994,3.233 1.162,0.623 2.623,0.18 3.233,-0.981 0.623,-1.174 0.18,-2.623 -0.982,-3.246 -0.359,-0.191 -0.742,-0.275 -1.125,-0.275 -0.862,0 -1.689,0.455 -2.12,1.269 m -118.792,-1.365 c -1.173,0.611 -1.628,2.059 -1.005,3.233 0.61,1.173 2.059,1.629 3.233,1.006 1.162,-0.611 1.616,-2.06 1.006,-3.221 -0.432,-0.826 -1.258,-1.293 -2.12,-1.293 -0.383,0 -0.754,0.096 -1.114,0.275 m 124.432,-13.316 c -0.323,1.293 0.456,2.587 1.736,2.91 1.282,0.323 2.587,-0.467 2.911,-1.748 0.311,-1.282 -0.468,-2.575 -1.749,-2.899 -0.191,-0.047 -0.395,-0.071 -0.586,-0.071 -1.067,0 -2.048,0.718 -2.312,1.808 m -129.641,-2.144 c -1.281,0.312 -2.071,1.605 -1.76,2.886 0.324,1.282 1.617,2.072 2.898,1.76 1.281,-0.311 2.072,-1.604 1.761,-2.885 -0.264,-1.102 -1.246,-1.833 -2.324,-1.833 -0.191,0 -0.383,0.024 -0.575,0.072 m 131.581,-13.723 0,0.264 c -0.012,1.329 1.054,2.406 2.383,2.406 1.317,0 2.395,-1.066 2.407,-2.382 l -0.012,-0.156 0.012,-0.132 c 0,-1.329 -1.077,-2.395 -2.395,-2.395 -1.329,0 -2.395,1.066 -2.395,2.395 m -135.316,-0.144 c 0,1.318 1.065,2.395 2.382,2.395 1.329,0 2.407,-1.065 2.407,-2.395 0,-1.317 -1.065,-2.395 -2.395,-2.395 -1.317,0 -2.394,1.066 -2.394,2.395 m 135.185,-18.369 c -1.282,0.311 -2.061,1.617 -1.748,2.898 0.311,1.281 1.616,2.071 2.898,1.76 1.28,-0.323 2.071,-1.616 1.748,-2.898 -0.265,-1.102 -1.246,-1.832 -2.324,-1.832 -0.192,0 -0.384,0.024 -0.574,0.072 m -133.138,1.617 c -0.311,1.281 0.467,2.586 1.749,2.897 1.281,0.324 2.586,-0.467 2.897,-1.748 0.324,-1.281 -0.455,-2.587 -1.748,-2.898 -0.192,-0.048 -0.384,-0.072 -0.575,-0.072 -1.077,0 -2.047,0.731 -2.323,1.821 m 126.815,-16.658 c -1.161,0.611 -1.616,2.06 -1.006,3.234 0.622,1.173 2.071,1.616 3.234,1.005 1.172,-0.61 1.627,-2.06 1.017,-3.233 -0.432,-0.814 -1.269,-1.281 -2.132,-1.281 -0.371,0 -0.754,0.083 -1.113,0.275 m -120.792,0.887 c -0.622,1.161 -0.179,2.61 0.994,3.233 1.174,0.622 2.623,0.167 3.234,-0.995 0.623,-1.173 0.167,-2.622 -0.994,-3.245 -0.36,-0.191 -0.743,-0.275 -1.114,-0.275 -0.862,0 -1.701,0.467 -2.12,1.282 m 111.056,-13.976 c -0.994,0.875 -1.09,2.395 -0.203,3.389 0.873,0.983 2.382,1.079 3.376,0.204 0.994,-0.886 1.078,-2.395 0.203,-3.389 -0.466,-0.526 -1.125,-0.802 -1.796,-0.802 -0.562,0 -1.125,0.191 -1.58,0.598 m -101.439,0.109 c -0.875,0.981 -0.791,2.502 0.191,3.376 0.994,0.887 2.503,0.791 3.389,-0.191 0.874,-0.994 0.79,-2.503 -0.204,-3.389 -0.455,-0.407 -1.018,-0.599 -1.593,-0.599 -0.658,0 -1.317,0.263 -1.783,0.803 m 88.865,-10.503 c -0.754,1.09 -0.491,2.587 0.599,3.341 1.09,0.755 2.587,0.479 3.341,-0.611 0.755,-1.089 0.479,-2.573 -0.61,-3.329 -0.42,-0.286 -0.887,-0.43 -1.366,-0.43 -0.754,0 -1.497,0.359 -1.964,1.029 m -76.22,-0.682 c -1.09,0.754 -1.365,2.251 -0.611,3.341 0.754,1.09 2.24,1.353 3.329,0.611 1.09,-0.755 1.365,-2.24 0.611,-3.33 -0.467,-0.681 -1.21,-1.042 -1.976,-1.042 -0.467,0 -0.934,0.144 -1.353,0.42 m 61.527,-6.394 c -0.467,1.245 0.155,2.622 1.389,3.089 1.234,0.479 2.623,-0.143 3.09,-1.389 0.479,-1.234 -0.144,-2.611 -1.39,-3.09 -0.274,-0.107 -0.562,-0.155 -0.85,-0.155 -0.958,0 -1.867,0.586 -2.239,1.545 m -46.57,-1.438 c -1.246,0.467 -1.869,1.856 -1.402,3.09 0.479,1.233 1.856,1.856 3.09,1.389 1.233,-0.467 1.868,-1.844 1.401,-3.089 -0.371,-0.959 -1.282,-1.545 -2.251,-1.545 -0.275,0 -0.563,0.048 -0.838,0.155 m 30.607,-1.903 c -0.155,1.316 0.779,2.502 2.096,2.669 1.306,0.156 2.503,-0.777 2.659,-2.095 0.155,-1.305 -0.779,-2.503 -2.084,-2.658 -0.096,-0.012 -0.192,-0.025 -0.288,-0.025 -1.197,0 -2.239,0.898 -2.383,2.109 m -14.202,-2.109 c -1.317,0.157 -2.251,1.354 -2.095,2.659 0.155,1.317 1.341,2.252 2.658,2.096 1.317,-0.155 2.251,-1.341 2.095,-2.659 -0.143,-1.221 -1.173,-2.107 -2.37,-2.107 -0.096,0 -0.192,0 -0.288,0.011" /><path
         id="path92"
         style="fill:#8f9295;fill-opacity:1;fill-rule:nonzero;stroke:none"
         d="m 462.891,357.976 c 0,-34.721 -28.148,-62.868 -62.869,-62.868 -34.721,0 -62.868,28.147 -62.868,62.868 0,34.721 28.147,62.868 62.868,62.868 34.721,0 62.869,-28.147 62.869,-62.868" /><g
         id="g94"
         transform="scale(0.1,0.1)"><g
           clip-path="url(#clipPath98)"
           id="g96"><g
             clip-path="url(#clipPath104)"
             id="g102"><path
               id="path108"
               style="fill:#71767b;fill-opacity:1;fill-rule:nonzero;stroke:none"
               d="m 3531.09,2951.08 1097.82,0 0,1091.26 -1097.82,0 0,-1091.26 z" /></g></g></g><g
         id="g110"
         transform="scale(0.1,0.1)"><g
           clip-path="url(#clipPath114)"
           id="g112"><path
             id="path118"
             style="fill:#fbd6b1;fill-opacity:1;fill-rule:nonzero;stroke:none"
             d="m 3623,3967.46 c -25.24,-3.02 -18.48,-82.85 -16.02,-117.51 -1.23,8.28 -12.45,19.78 -19.93,18.48 -18.55,-3.2 -13.13,-18.9 -12.71,-26.88 -0.68,6.52 -6.46,18.21 -18.27,16.52 -10.72,-1.54 -11.12,-13.58 -10.16,-21.93 -0.96,8.35 -7.17,15.6 -16.82,13.88 -34.02,-6.07 8.09,-97.86 8.09,-97.86 l 98.54,-4.71 c 0,0 15.26,223.36 -12.72,220.01" /><path
             id="path120"
             style="fill:#f8f8f8;fill-opacity:1;fill-rule:nonzero;stroke:none"
             d="m 3642.79,3761.29 -0.72,24.13 -121.65,-6.78 2.92,-22.2 119.45,4.85" /><path
             id="path122"
             style="fill:#2e2d2d;fill-opacity:1;fill-rule:nonzero;stroke:none"
             d="m 3837.84,3064.03 c -181.43,256.9 -185.57,703.88 -185.57,703.88 l -134.82,-2.43 c 0,0 4.88,-401.27 224.7,-774.72 l 95.69,73.27" /><path
             id="path124"
             style="fill:#4f5052;fill-opacity:1;fill-rule:nonzero;stroke:none"
             d="m 3555.48,3733.91 c -0.52,-7.15 -6.77,-12.55 -13.96,-12.05 -7.19,0.51 -12.6,6.72 -12.09,13.87 0.52,7.16 6.76,12.55 13.95,12.04 7.19,-0.5 12.6,-6.71 12.1,-13.86" /><path
             id="path126"
             style="fill:#4f5052;fill-opacity:1;fill-rule:nonzero;stroke:none"
             d="m 3560.08,3688.65 c -0.52,-7.15 -6.76,-12.54 -13.94,-12.04 -7.2,0.51 -12.61,6.72 -12.1,13.88 0.51,7.15 6.76,12.54 13.95,12.04 7.19,-0.51 12.6,-6.71 12.09,-13.88" /><path
             id="path128"
             style="fill:#fbd6b1;fill-opacity:1;fill-rule:nonzero;stroke:none"
             d="m 4406.78,3176.54 c 0,0 121.68,580.31 -244.15,660.64 -466.35,102.4 -441.15,-596.92 -441.15,-596.92 l 685.3,-63.72" /><path
             id="path130"
             style="fill:#2e2d2d;fill-opacity:1;fill-rule:nonzero;stroke:none"
             d="m 4198.55,3213.27 -244.78,-256.31 -178.9,301.13 -85.37,5.88 -35.31,-540.09 c 0,0 97.06,-31.22 218.61,-53.95 50.73,-10.4 129.02,-19.68 129.02,-19.68 79.97,-7.96 248.6,-14.77 362.73,-15.63 l 61,551.12 -227,27.53" /><path
             id="path132"
             style="fill:#f8f8f8;fill-opacity:1;fill-rule:nonzero;stroke:none"
             d="m 3774.87,3258.09 178.9,-301.13 244.78,256.31 -423.68,44.82" /><path
             id="path134"
             style="fill:#4f5052;fill-opacity:1;fill-rule:nonzero;stroke:none"
             d="m 3774.87,3258.09 -15.12,-119.42 66.17,-20.71 -18.82,-90.14 146.67,-70.86 -178.9,301.13" /><path
             id="path136"
             style="fill:#4f5052;fill-opacity:1;fill-rule:nonzero;stroke:none"
             d="m 3953.77,2956.96 154.82,56.56 1.57,66.79 73.77,18.47 14.62,114.49 -244.78,-256.31" /><path
             id="path138"
             style="fill:#2e2d2d;fill-opacity:1;fill-rule:nonzero;stroke:none"
             d="m 3916.14,3184.21 25.74,31.08 57.76,-3.89 17.03,-42.37 -25.93,-24.77 18.31,-129.67 -55.28,-57.63 -47.56,79.98 33.36,111.28 -23.43,35.99" /><path
             id="path140"
             style="fill:#52423b;fill-opacity:1;fill-rule:nonzero;stroke:none"
             d="m 3768.98,4078.27 c 0,0 -210.87,-401.66 539.82,-422.53 l -5.6,-149 c 0,0 65.46,50.9 74.87,-18.07 10.83,-79.42 -74.28,-50.62 -74.28,-50.62 0,0 52.63,-178.4 116.31,-251.73 3.56,-4.09 298.4,661.1 -11.94,654.8 0,0 8.46,158.82 -187.2,201.82 -273.37,60.08 -294.46,-177.14 -451.98,35.33" /><path
             id="path142"
             style="fill:#ec6180;fill-opacity:1;fill-rule:nonzero;stroke:none"
             d="m 3893.73,3420.09 c -11.05,-59.92 28.58,-117.44 88.49,-128.48 59.92,-11.04 117.44,28.58 128.48,88.5 l -216.97,39.98" /><path
             id="path144"
             style="fill:#52423b;fill-opacity:1;fill-rule:nonzero;stroke:none"
             d="m 4123.38,3510.83 c -5.84,-25.37 0.06,-48.38 13.18,-51.4 13.11,-3.02 28.47,15.1 34.31,40.47 5.83,25.37 -0.07,48.38 -13.18,51.4 -13.11,3.02 -28.48,-15.1 -34.31,-40.47" /><path
             id="path146"
             style="fill:#52423b;fill-opacity:1;fill-rule:nonzero;stroke:none"
             d="m 3848.45,3571.99 c -5.84,-25.37 0.06,-48.39 13.17,-51.4 13.12,-3.02 28.48,15.1 34.31,40.47 5.84,25.37 -0.06,48.38 -13.17,51.4 -13.12,3.02 -28.48,-15.1 -34.31,-40.47" /></g></g><path
         id="path148"
         style="fill:#9c3b29;fill-opacity:1;fill-rule:nonzero;stroke:none"
         d="m 351.13,457.036 c -0.778,0 -1.557,0.323 -2.108,0.874 -0.562,0.563 -0.886,1.329 -0.886,2.12 0,0.79 0.324,1.568 0.886,2.119 0.557,0.557 1.336,0.835 2.114,0.835 0.778,0 1.557,-0.278 2.114,-0.835 0.562,-0.563 0.874,-1.329 0.874,-2.119 0,-0.791 -0.312,-1.557 -0.874,-2.12 -0.551,-0.551 -1.33,-0.874 -2.12,-0.874" /><path
         id="path150"
         style="fill:#9c3b29;fill-opacity:1;fill-rule:nonzero;stroke:none"
         d="m 367.607,457.036 c -1.652,0 -2.993,1.341 -2.993,2.994 0,1.652 1.341,2.993 2.993,2.993 1.653,0 2.994,-1.341 2.994,-2.993 0,-1.653 -1.341,-2.994 -2.994,-2.994" /><path
         id="path152"
         style="fill:#9c3b29;fill-opacity:1;fill-rule:nonzero;stroke:none"
         d="m 433.518,457.036 c -1.653,0 -2.994,1.341 -2.994,2.994 0,1.652 1.341,2.993 2.994,2.993 1.652,0 2.994,-1.341 2.994,-2.993 0,-1.653 -1.342,-2.994 -2.994,-2.994 m -16.478,0 c -1.653,0 -2.994,1.341 -2.994,2.994 0,1.652 1.341,2.993 2.994,2.993 1.652,0 2.994,-1.341 2.994,-2.993 0,-1.653 -1.342,-2.994 -2.994,-2.994 m -16.477,0 c -1.653,0 -2.994,1.341 -2.994,2.994 0,1.652 1.341,2.993 2.994,2.993 1.652,0 2.993,-1.341 2.993,-2.993 0,-1.653 -1.341,-2.994 -2.993,-2.994 m -16.478,0 c -1.653,0 -2.993,1.341 -2.993,2.994 0,1.652 1.34,2.993 2.993,2.993 1.653,0 2.994,-1.341 2.994,-2.993 0,-1.653 -1.341,-2.994 -2.994,-2.994" /><path
         id="path154"
         style="fill:#9c3b29;fill-opacity:1;fill-rule:nonzero;stroke:none"
         d="m 449.995,457.036 c -0.79,0 -1.556,0.323 -2.12,0.874 -0.551,0.563 -0.873,1.329 -0.873,2.12 0,0.79 0.322,1.556 0.873,2.119 0.557,0.557 1.339,0.835 2.12,0.835 0.782,0 1.563,-0.278 2.119,-0.835 0.551,-0.563 0.875,-1.329 0.875,-2.119 0,-0.791 -0.324,-1.557 -0.875,-2.12 -0.562,-0.551 -1.328,-0.874 -2.119,-0.874" /><path
         id="path156"
         style="fill:#e9eae9;fill-opacity:1;fill-rule:nonzero;stroke:none"
         d="m 336.095,450.823 127.855,0 c -0.345,0.714 -0.708,1.414 -1.059,2.122 l -125.737,0 c -0.352,-0.708 -0.714,-1.408 -1.059,-2.122" /><path
         id="path158"
         style="fill:#78a789;fill-opacity:1;fill-rule:nonzero;stroke:none"
         d="m 346.061,201.129 c -10e-4,0.003 -0.003,0.005 -0.005,0.008 2.426,0.344 4.905,0.525 7.425,0.531 -2.519,-0.006 -4.994,-0.195 -7.42,-0.539 m 7.449,0.539 c 0.012,0 0.022,0 0.034,0 -0.012,0 -0.022,0 -0.034,0 m -34.204,78.436 c 0.001,0 0.001,0 0.001,0.001 l -0.001,-0.001" /><path
         id="path160"
         style="fill:#9c3b29;fill-opacity:1;fill-rule:nonzero;stroke:none"
         d="m 346.056,201.137 c -13.928,21.664 -24.702,46.466 -31.486,73.397 1.534,1.895 3.11,3.756 4.736,5.57 l 0.001,0.001 c 0.026,0.028 0.052,0.057 0.078,0.086 6.895,-27.736 18.273,-53.09 33.123,-74.826 0.858,-1.256 1.73,-2.503 2.61,-3.735 -0.501,0.014 -1.001,0.038 -1.506,0.038 l 0,0 c -0.023,0 -0.046,0 -0.068,0 -0.012,0 -0.022,0 -0.034,0 -0.01,0 -0.02,0 -0.029,0 -2.52,-0.006 -4.999,-0.187 -7.425,-0.531" /><path
         id="path162"
         style="fill:#78a789;fill-opacity:1;fill-rule:nonzero;stroke:none"
         d="m 453.98,201.124 c -2.422,0.346 -4.894,0.535 -7.409,0.544 2.517,-0.008 4.99,-0.191 7.414,-0.537 -0.002,-0.002 -0.003,-0.004 -0.005,-0.007 m -8.347,0.531 c 0.251,0.007 0.502,0.013 0.755,0.013 l 0,0 c -0.253,0 -0.504,-0.006 -0.755,-0.013 m 0.935,0.013 c -0.016,0 -0.032,0 -0.047,0 0.016,0 0.031,0 0.047,0 m -0.079,0 c -0.011,0 -0.022,0 -0.032,0 0.011,0 0.02,0 0.032,0" /><path
         id="path164"
         style="fill:#9c3b29;fill-opacity:1;fill-rule:nonzero;stroke:none"
         d="m 453.985,201.131 c -2.424,0.346 -4.897,0.529 -7.414,0.537 -0.001,0 -0.002,0 -0.003,0 -0.016,0 -0.031,0 -0.047,0 -0.011,0 -0.022,0 -0.032,0 -0.012,0 -0.021,0 -0.032,0 -0.023,0 -0.046,0 -0.069,0 l 0,0 c -0.253,0 -0.504,-0.006 -0.755,-0.013 -0.235,-0.008 -0.47,-0.017 -0.706,-0.023 16.117,22.535 28.432,49.203 35.721,78.522 1.655,-1.843 3.257,-3.735 4.816,-5.663 -6.785,-26.916 -17.557,-51.706 -31.479,-73.36" /><path
         id="path174"
         style="fill:#7eb08e;fill-opacity:1;fill-rule:nonzero;stroke:none"
         d="m 426.943,187.901 -53.842,0 c -4.65,0 -9.08,2.083 -11.965,5.73 -0.026,0.033 -0.055,0.069 -0.082,0.103 0.028,-0.036 0.054,-0.068 0.082,-0.103 2.885,-3.647 7.315,-5.73 11.965,-5.73 l 53.842,0 c 4.65,0 9.081,2.083 11.966,5.73 0.03,0.037 0.058,0.073 0.088,0.111 -0.029,-0.036 -0.06,-0.075 -0.088,-0.111 -2.885,-3.647 -7.316,-5.73 -11.966,-5.73 m 12.075,5.868 c 0.022,0.028 0.044,0.056 0.067,0.084 -0.024,-0.029 -0.044,-0.055 -0.067,-0.084 m -77.994,0.004 c -0.018,0.022 -0.036,0.045 -0.053,0.067 0.019,-0.024 0.034,-0.043 0.053,-0.067 m -0.086,0.109 c -0.017,0.021 -0.034,0.042 -0.051,0.064 0.017,-0.021 0.034,-0.043 0.051,-0.064 m 78.174,0.006 c 0.021,0.026 0.039,0.05 0.06,0.076 -0.02,-0.025 -0.04,-0.051 -0.06,-0.076 m -78.258,0.099 c -0.018,0.024 -0.034,0.044 -0.053,0.068 0.017,-0.021 0.037,-0.046 0.053,-0.068 m 78.35,0.018 c 0.019,0.023 0.037,0.046 0.055,0.07 -0.018,-0.023 -0.037,-0.047 -0.055,-0.07 m -78.433,0.088 c -0.02,0.026 -0.038,0.049 -0.058,0.075 0.02,-0.026 0.038,-0.049 0.058,-0.075 m 78.524,0.027 c 0.018,0.024 0.033,0.043 0.052,0.067 -0.018,-0.023 -0.034,-0.044 -0.052,-0.067 m -78.623,0.1 c -0.02,0.025 -0.043,0.054 -0.063,0.079 0.022,-0.028 0.04,-0.051 0.063,-0.079 m 78.709,0.01 c 0.017,0.021 0.037,0.046 0.053,0.068 -0.018,-0.023 -0.035,-0.045 -0.053,-0.068 m 0.091,0.116 c 0.017,0.021 0.032,0.041 0.049,0.062 -0.016,-0.02 -0.033,-0.042 -0.049,-0.062 m -78.9,0.001 c -0.014,0.018 -0.03,0.038 -0.044,0.056 0.015,-0.019 0.029,-0.037 0.044,-0.056 m -0.085,0.108 c -0.014,0.018 -0.027,0.035 -0.041,0.053 0.015,-0.019 0.027,-0.034 0.041,-0.053 m 79.073,0.003 c 0.015,0.019 0.033,0.042 0.047,0.061 -0.016,-0.021 -0.031,-0.041 -0.047,-0.061 m -79.156,0.103 c -0.012,0.016 -0.026,0.034 -0.039,0.05 0.013,-0.016 0.026,-0.033 0.039,-0.05 m 79.246,0.012 c 0.015,0.019 0.03,0.038 0.044,0.057 -0.014,-0.018 -0.03,-0.039 -0.044,-0.057 m -79.328,0.093 c -0.011,0.014 -0.024,0.031 -0.034,0.045 0.012,-0.017 0.021,-0.028 0.034,-0.045 m 79.414,0.017 c 0.014,0.019 0.03,0.039 0.045,0.058 -0.014,-0.018 -0.031,-0.04 -0.045,-0.058 m 0.089,0.114 c 0.013,0.017 0.029,0.038 0.042,0.055 -0.014,-0.018 -0.028,-0.036 -0.042,-0.055 m 0.086,0.111 c 0.014,0.019 0.028,0.036 0.043,0.055 -0.014,-0.018 -0.029,-0.037 -0.043,-0.055 m -79.798,0.026 c -0.007,0.01 -0.017,0.023 -0.025,0.033 0.009,-0.012 0.016,-0.021 0.025,-0.033 M 440,195.023 c 0.013,0.016 0.026,0.033 0.039,0.049 -0.014,-0.018 -0.025,-0.031 -0.039,-0.049 m -79.968,0.016 c -0.007,0.009 -0.013,0.017 -0.021,0.027 0.005,-0.007 0.016,-0.02 0.021,-0.027 m 80.055,0.095 c 0.012,0.016 0.025,0.033 0.038,0.049 -0.013,-0.016 -0.026,-0.033 -0.038,-0.049 m -80.135,0.007 c -0.004,0.006 -0.013,0.017 -0.017,0.023 0.005,-0.007 0.012,-0.015 0.017,-0.023 m -0.08,0.104 -0.001,0.001 0.001,-0.001 m 80.302,0.002 c 0.013,0.016 0.025,0.031 0.038,0.048 -0.013,-0.016 -0.026,-0.032 -0.038,-0.048 m 0.085,0.11 c 0.013,0.016 0.025,0.031 0.038,0.048 -0.013,-0.016 -0.026,-0.033 -0.038,-0.048 m 0.09,0.116 c 0.01,0.012 0.02,0.025 0.029,0.037 -0.011,-0.014 -0.018,-0.023 -0.029,-0.037 m 0.086,0.111 c 0.009,0.012 0.018,0.023 0.027,0.035 -0.009,-0.011 -0.018,-0.023 -0.027,-0.035 m 0.088,0.114 c 0.007,0.01 0.013,0.018 0.021,0.027 -0.007,-0.009 -0.014,-0.018 -0.021,-0.027 m 0.085,0.111 c 0.006,0.007 0.013,0.016 0.018,0.024 -0.007,-0.01 -0.011,-0.015 -0.018,-0.024" /><path
         id="path176"
         style="fill:#e6e9e7;fill-opacity:1;fill-rule:nonzero;stroke:none"
         d="m 426.943,187.901 -53.842,0 c -4.65,0 -9.08,2.083 -11.965,5.73 -0.028,0.035 -0.054,0.067 -0.082,0.103 -0.01,0.014 -0.02,0.025 -0.03,0.039 -0.019,0.024 -0.034,0.043 -0.053,0.067 -0.011,0.013 -0.022,0.028 -0.033,0.042 -0.017,0.021 -0.034,0.043 -0.051,0.064 -0.011,0.014 -0.022,0.028 -0.033,0.041 -0.016,0.022 -0.036,0.047 -0.053,0.068 -0.009,0.012 -0.021,0.026 -0.03,0.038 -0.02,0.026 -0.038,0.049 -0.058,0.075 -0.014,0.018 -0.027,0.034 -0.041,0.052 -0.023,0.028 -0.041,0.051 -0.063,0.079 -0.012,0.016 -0.025,0.032 -0.037,0.048 -0.015,0.019 -0.029,0.037 -0.044,0.056 -0.014,0.018 -0.027,0.034 -0.041,0.052 -0.014,0.019 -0.026,0.034 -0.041,0.053 -0.014,0.018 -0.028,0.035 -0.042,0.053 -0.013,0.017 -0.026,0.034 -0.039,0.05 -0.015,0.02 -0.028,0.036 -0.043,0.055 -0.013,0.017 -0.022,0.028 -0.034,0.045 -0.059,0.075 -0.116,0.148 -0.175,0.223 -0.009,0.012 -0.016,0.021 -0.025,0.033 -0.019,0.024 -0.037,0.048 -0.056,0.072 -0.005,0.007 -0.016,0.02 -0.021,0.027 -0.02,0.026 -0.039,0.05 -0.059,0.075 -0.005,0.008 -0.012,0.016 -0.017,0.023 -0.022,0.028 -0.042,0.053 -0.063,0.081 l -0.001,0.001 c -1.62,2.091 -3.202,4.216 -4.753,6.384 0.001,0 0.001,0 0.001,0 l 0,0 c -0.882,1.233 -1.752,2.477 -2.611,3.735 -20.781,30.425 -34.778,67.943 -39.163,109.144 13.396,-57.16 28.914,-91.025 84.237,-91.025 55.324,0 79.606,44.167 90.494,111.953 -0.495,-19.173 -3.058,-37.703 -7.428,-55.282 -0.011,0.012 -0.021,0.023 -0.032,0.036 l 0,0 c -10e-4,0 -10e-4,0 -10e-4,0 -6.511,-26.189 -17.016,-50.253 -30.669,-71.154 -1.644,-2.515 -3.332,-4.985 -5.065,-7.407 l 0,0 c 0.015,0.001 0.031,0.001 0.046,0.002 -1.404,-1.965 -2.839,-3.899 -4.301,-5.799 -0.005,-0.008 -0.012,-0.017 -0.018,-0.024 -0.021,-0.028 -0.043,-0.056 -0.064,-0.084 -0.008,-0.009 -0.014,-0.017 -0.021,-0.027 -0.019,-0.025 -0.042,-0.054 -0.061,-0.079 -0.009,-0.012 -0.018,-0.023 -0.027,-0.035 -0.019,-0.025 -0.038,-0.049 -0.057,-0.074 -0.009,-0.012 -0.019,-0.025 -0.029,-0.037 -0.017,-0.023 -0.035,-0.045 -0.052,-0.068 -0.013,-0.017 -0.025,-0.032 -0.038,-0.048 -0.016,-0.021 -0.032,-0.041 -0.047,-0.062 -0.013,-0.017 -0.025,-0.032 -0.038,-0.048 -0.016,-0.021 -0.033,-0.043 -0.049,-0.064 -0.013,-0.016 -0.026,-0.033 -0.038,-0.049 -0.016,-0.021 -0.032,-0.041 -0.048,-0.062 -0.013,-0.016 -0.026,-0.033 -0.039,-0.049 -0.014,-0.019 -0.032,-0.042 -0.046,-0.06 -0.015,-0.019 -0.029,-0.036 -0.043,-0.055 -0.014,-0.019 -0.029,-0.038 -0.044,-0.056 -0.013,-0.017 -0.029,-0.038 -0.042,-0.055 -0.016,-0.02 -0.028,-0.036 -0.044,-0.056 -0.015,-0.019 -0.031,-0.039 -0.045,-0.058 -0.015,-0.018 -0.027,-0.035 -0.042,-0.053 -0.014,-0.019 -0.029,-0.038 -0.044,-0.057 -0.015,-0.018 -0.028,-0.036 -0.043,-0.054 -0.014,-0.019 -0.032,-0.042 -0.047,-0.061 -0.014,-0.018 -0.025,-0.032 -0.039,-0.05 -0.017,-0.021 -0.032,-0.041 -0.049,-0.062 -0.013,-0.016 -0.025,-0.032 -0.038,-0.048 -0.016,-0.022 -0.036,-0.047 -0.053,-0.068 -0.01,-0.013 -0.023,-0.03 -0.034,-0.043 -0.019,-0.024 -0.034,-0.043 -0.052,-0.067 -0.013,-0.016 -0.023,-0.029 -0.036,-0.045 -0.018,-0.024 -0.036,-0.047 -0.055,-0.07 -0.011,-0.014 -0.021,-0.027 -0.032,-0.041 -0.021,-0.026 -0.039,-0.05 -0.06,-0.076 -0.009,-0.011 -0.018,-0.023 -0.027,-0.035 -0.023,-0.028 -0.045,-0.056 -0.067,-0.084 -0.007,-0.009 -0.014,-0.018 -0.021,-0.027 -0.03,-0.038 -0.058,-0.074 -0.088,-0.111 -2.885,-3.647 -7.316,-5.73 -11.966,-5.73" /><path
         id="path178"
         style="fill:#a33e2a;fill-opacity:1;fill-rule:nonzero;stroke:none"
         d="m 444.881,201.63 c 0.015,0.001 0.031,0.001 0.046,0.002 l 0,0 c -0.015,-0.001 -0.031,-0.001 -0.046,-0.002 m 35.767,78.524 c -0.011,0.012 -0.022,0.025 -0.033,0.037 10e-4,0 10e-4,0 10e-4,0 0.011,-0.013 0.021,-0.024 0.032,-0.036 l 0,-10e-4" /><path
         id="path180"
         style="fill:#933727;fill-opacity:1;fill-rule:nonzero;stroke:none"
         d="m 355.119,201.63 c 0,0 0,0 -0.001,0 -0.88,1.232 -1.752,2.479 -2.61,3.735 0.859,-1.258 1.729,-2.502 2.611,-3.735" /><path
         id="path182"
         style="fill:#cfd1d0;fill-opacity:1;fill-rule:nonzero;stroke:none"
         d="m 449.946,209.037 c 13.653,20.901 24.158,44.965 30.669,71.154 l 0,0 c -6.511,-26.189 -17.016,-50.253 -30.669,-71.154" /><path
         id="path184"
         style="fill:#933727;fill-opacity:1;fill-rule:nonzero;stroke:none"
         d="m 444.881,201.63 c 1.733,2.422 3.421,4.892 5.065,7.407 13.653,20.901 24.158,44.965 30.67,71.154 0.01,-0.012 0.021,-0.025 0.032,-0.037 -7.289,-29.319 -19.604,-55.987 -35.721,-78.522 -0.015,-0.001 -0.031,-0.001 -0.046,-0.002 l 0,0" /><path
         id="path186"
         style="fill:#000000;fill-opacity:0.36842107;fill-rule:nonzero;stroke:none"
         d="m 374.001,180.968 52.9418,0 0,6.9332 -52.9418,0 0,-6.9332 z" /></g></g></svg>